<?xml version="1.0" encoding="UTF-8" standalone="no"?><!DOCTYPE svg PUBLIC "-//W3C//DTD SVG 1.1//EN" "http://www.w3.org/Graphics/SVG/1.1/DTD/svg11.dtd"><svg width="100%" height="100%" viewBox="0 0 114 114" version="1.1" xmlns="http://www.w3.org/2000/svg" xmlns:xlink="http://www.w3.org/1999/xlink" xml:space="preserve" xmlns:serif="http://www.serif.com/" style="fill-rule:evenodd;clip-rule:evenodd;stroke-linecap:round;stroke-linejoin:round;stroke-miterlimit:1.5;"><rect id="Artboard1" x="0" y="0" width="113.386" height="113.386" style="fill:none;"/><g id="GMT"><g id="GMT1" serif:id="GMT"><path d="M56.688,56.688l26.543,-26.534" style="fill:none;stroke:#f00;stroke-width:1.5px;"/><path d="M80.401,28.224l8.333,-3.573l-3.572,8.334l-4.761,-4.761Z" style="fill:#fff;"/><path d="M80.401,28.224l8.333,-3.573l-3.572,8.334l-4.761,-4.761Zm2.627,0.506c-0,-0 1.628,1.628 1.628,1.628l1.222,-2.85l-2.85,1.222Z"/><path d="M58.105,55.281c0.785,0.785 0.785,2.061 -0,2.846c-0.786,0.786 -2.061,0.786 -2.846,0c-0.786,-0.785 -0.786,-2.061 -0,-2.846c0.785,-0.785 2.06,-0.785 2.846,-0Z" style="fill:#fff;stroke:#000;stroke-width:1px;"/></g></g></svg>