<?xml version="1.0" encoding="UTF-8" standalone="no"?><!DOCTYPE svg PUBLIC "-//W3C//DTD SVG 1.1//EN" "http://www.w3.org/Graphics/SVG/1.1/DTD/svg11.dtd"><svg width="100%" height="100%" viewBox="0 0 114 114" version="1.1" xmlns="http://www.w3.org/2000/svg" xmlns:xlink="http://www.w3.org/1999/xlink" xml:space="preserve" xmlns:serif="http://www.serif.com/" style="fill-rule:evenodd;clip-rule:evenodd;stroke-linecap:square;stroke-miterlimit:1.5;"><rect id="Artboard1" x="0" y="0" width="113.386" height="113.386" style="fill:none;"/><g id="SECOND"><g><path d="M56.693,10.65l-0,55.05" style="fill:none;stroke:#525252;stroke-width:0.4px;"/><circle cx="56.693" cy="22.701" r="1.677" style="fill:#fff;"/><path d="M56.693,21.025c0.925,-0 1.677,0.751 1.677,1.676c-0,0.926 -0.752,1.677 -1.677,1.677c-0.925,-0 -1.677,-0.751 -1.677,-1.677c0,-0.925 0.752,-1.676 1.677,-1.676Zm-0,0.4c-0.705,-0 -1.277,0.572 -1.277,1.276c0,0.705 0.572,1.277 1.277,1.277c0.704,-0 1.277,-0.572 1.277,-1.277c-0,-0.704 -0.573,-1.276 -1.277,-1.276Z" style="fill:#525252;"/><circle cx="56.686" cy="56.688" r="1.683" style="fill:#525252;"/><path d="M56.686,55.005c0.929,0 1.684,0.754 1.684,1.683c-0,0.929 -0.755,1.683 -1.684,1.683c-0.929,0 -1.683,-0.754 -1.683,-1.683c0,-0.929 0.754,-1.683 1.683,-1.683Zm0,0.4c-0.708,0 -1.283,0.575 -1.283,1.283c0,0.708 0.575,1.283 1.283,1.283c0.709,0 1.284,-0.575 1.284,-1.283c-0,-0.708 -0.575,-1.283 -1.284,-1.283Z" style="fill:#525252;"/><circle cx="56.686" cy="65.7" r="0.964" style="fill:#525252;"/><path d="M56.686,64.736c0.532,-0 0.964,0.432 0.964,0.964c0,0.532 -0.432,0.964 -0.964,0.964c-0.532,0 -0.964,-0.432 -0.964,-0.964c0,-0.532 0.432,-0.964 0.964,-0.964Zm0,0.4c-0.311,-0 -0.564,0.253 -0.564,0.564c0,0.311 0.253,0.564 0.564,0.564c0.312,0 0.564,-0.253 0.564,-0.564c0,-0.311 -0.252,-0.564 -0.564,-0.564Z" style="fill:#525252;"/></g></g></svg>